<mxfile host="Electron" modified="2023-07-17T14:58:46.892Z" agent="Mozilla/5.0 (Windows NT 10.0; Win64; x64) AppleWebKit/537.36 (KHTML, like Gecko) draw.io/21.2.1 Chrome/112.0.5615.87 Electron/24.1.2 Safari/537.36" etag="gPI27VIk_xE4MJKRaqG-" version="21.2.1" type="device">
  <diagram name="Seite-1" id="v8tPiCJEBtMCoQW9DKvw">
    <mxGraphModel dx="2913" dy="1190" grid="1" gridSize="10" guides="1" tooltips="1" connect="1" arrows="1" fold="1" page="1" pageScale="1" pageWidth="827" pageHeight="1169" math="0" shadow="0">
      <root>
        <mxCell id="0" />
        <mxCell id="1" parent="0" />
        <mxCell id="vHFOS5RNo04X9ILBIirs-7" value="" style="rounded=0;whiteSpace=wrap;html=1;" vertex="1" parent="1">
          <mxGeometry x="160" y="40" width="600" height="840" as="geometry" />
        </mxCell>
        <mxCell id="vHFOS5RNo04X9ILBIirs-12" value="" style="group" vertex="1" connectable="0" parent="1">
          <mxGeometry x="240" y="352.5" width="400" height="215" as="geometry" />
        </mxCell>
        <mxCell id="vHFOS5RNo04X9ILBIirs-10" value="" style="ellipse;shape=cloud;whiteSpace=wrap;html=1;" vertex="1" parent="vHFOS5RNo04X9ILBIirs-12">
          <mxGeometry width="400" height="215" as="geometry" />
        </mxCell>
        <mxCell id="vHFOS5RNo04X9ILBIirs-11" value="Service Netz" style="text;html=1;strokeColor=none;fillColor=none;align=center;verticalAlign=middle;whiteSpace=wrap;rounded=0;" vertex="1" parent="vHFOS5RNo04X9ILBIirs-12">
          <mxGeometry x="44.54545454545455" y="65" width="100" height="30" as="geometry" />
        </mxCell>
        <mxCell id="vHFOS5RNo04X9ILBIirs-5" value="" style="ellipse;shape=cloud;whiteSpace=wrap;html=1;" vertex="1" parent="1">
          <mxGeometry x="230" y="120" width="470" height="215" as="geometry" />
        </mxCell>
        <mxCell id="vHFOS5RNo04X9ILBIirs-1" value="" style="ellipse;shape=cloud;whiteSpace=wrap;html=1;" vertex="1" parent="1">
          <mxGeometry x="241" y="645" width="440" height="215" as="geometry" />
        </mxCell>
        <mxCell id="6SQoqw2gB74EK-2C9-WU-14" style="edgeStyle=orthogonalEdgeStyle;rounded=0;orthogonalLoop=1;jettySize=auto;html=1;" parent="1" source="6SQoqw2gB74EK-2C9-WU-1" target="6SQoqw2gB74EK-2C9-WU-8" edge="1">
          <mxGeometry relative="1" as="geometry" />
        </mxCell>
        <mxCell id="6SQoqw2gB74EK-2C9-WU-16" style="edgeStyle=orthogonalEdgeStyle;rounded=0;orthogonalLoop=1;jettySize=auto;html=1;" parent="1" source="6SQoqw2gB74EK-2C9-WU-1" target="6SQoqw2gB74EK-2C9-WU-4" edge="1">
          <mxGeometry relative="1" as="geometry" />
        </mxCell>
        <mxCell id="6SQoqw2gB74EK-2C9-WU-1" value="Webserver" style="image;aspect=fixed;html=1;points=[];align=center;fontSize=12;image=img/lib/azure2/app_services/App_Service_Plans.svg;" parent="1" vertex="1">
          <mxGeometry x="429" y="440" width="64" height="64" as="geometry" />
        </mxCell>
        <mxCell id="6SQoqw2gB74EK-2C9-WU-3" value="Datenbank" style="image;aspect=fixed;html=1;points=[];align=center;fontSize=12;image=img/lib/azure2/preview/Time_Series_Data_Sets.svg;" parent="1" vertex="1">
          <mxGeometry x="437" y="700" width="48" height="64" as="geometry" />
        </mxCell>
        <mxCell id="6SQoqw2gB74EK-2C9-WU-4" value="Active Directory&amp;nbsp;" style="image;aspect=fixed;html=1;points=[];align=center;fontSize=12;image=img/lib/azure2/identity/Azure_Active_Directory.svg;" parent="1" vertex="1">
          <mxGeometry x="190" y="440" width="70" height="64" as="geometry" />
        </mxCell>
        <mxCell id="6SQoqw2gB74EK-2C9-WU-10" style="edgeStyle=orthogonalEdgeStyle;rounded=0;orthogonalLoop=1;jettySize=auto;html=1;" parent="1" source="6SQoqw2gB74EK-2C9-WU-5" target="6SQoqw2gB74EK-2C9-WU-9" edge="1">
          <mxGeometry relative="1" as="geometry" />
        </mxCell>
        <mxCell id="6SQoqw2gB74EK-2C9-WU-5" value="Cielts" style="image;aspect=fixed;html=1;points=[];align=center;fontSize=12;image=img/lib/azure2/intune/Devices.svg;" parent="1" vertex="1">
          <mxGeometry x="320" y="200" width="68" height="60" as="geometry" />
        </mxCell>
        <mxCell id="6SQoqw2gB74EK-2C9-WU-12" style="edgeStyle=orthogonalEdgeStyle;rounded=0;orthogonalLoop=1;jettySize=auto;html=1;entryX=0.5;entryY=-0.006;entryDx=0;entryDy=0;entryPerimeter=0;" parent="1" source="6SQoqw2gB74EK-2C9-WU-7" target="6SQoqw2gB74EK-2C9-WU-9" edge="1">
          <mxGeometry relative="1" as="geometry" />
        </mxCell>
        <mxCell id="6SQoqw2gB74EK-2C9-WU-7" value="Clients" style="image;aspect=fixed;html=1;points=[];align=center;fontSize=12;image=img/lib/azure2/compute/VM_Scale_Sets.svg;" parent="1" vertex="1">
          <mxGeometry x="534" y="190" width="80" height="80" as="geometry" />
        </mxCell>
        <mxCell id="6SQoqw2gB74EK-2C9-WU-15" style="edgeStyle=orthogonalEdgeStyle;rounded=0;orthogonalLoop=1;jettySize=auto;html=1;" parent="1" source="6SQoqw2gB74EK-2C9-WU-8" target="6SQoqw2gB74EK-2C9-WU-3" edge="1">
          <mxGeometry relative="1" as="geometry" />
        </mxCell>
        <mxCell id="6SQoqw2gB74EK-2C9-WU-8" value="" style="image;aspect=fixed;html=1;points=[];align=center;fontSize=12;image=img/lib/azure2/networking/Azure_Firewall_Manager.svg;" parent="1" vertex="1">
          <mxGeometry x="426" y="570" width="70" height="60" as="geometry" />
        </mxCell>
        <mxCell id="6SQoqw2gB74EK-2C9-WU-13" style="edgeStyle=orthogonalEdgeStyle;rounded=0;orthogonalLoop=1;jettySize=auto;html=1;" parent="1" source="6SQoqw2gB74EK-2C9-WU-9" target="6SQoqw2gB74EK-2C9-WU-1" edge="1">
          <mxGeometry relative="1" as="geometry" />
        </mxCell>
        <mxCell id="6SQoqw2gB74EK-2C9-WU-9" value="" style="image;aspect=fixed;html=1;points=[];align=center;fontSize=12;image=img/lib/azure2/networking/Azure_Firewall_Manager.svg;" parent="1" vertex="1">
          <mxGeometry x="426" y="340" width="70" height="60" as="geometry" />
        </mxCell>
        <mxCell id="vHFOS5RNo04X9ILBIirs-2" value="Datenbank Netz" style="text;html=1;strokeColor=none;fillColor=none;align=center;verticalAlign=middle;whiteSpace=wrap;rounded=0;" vertex="1" parent="1">
          <mxGeometry x="290" y="710" width="110" height="30" as="geometry" />
        </mxCell>
        <mxCell id="vHFOS5RNo04X9ILBIirs-6" value="Client Netz" style="text;html=1;strokeColor=none;fillColor=none;align=center;verticalAlign=middle;whiteSpace=wrap;rounded=0;" vertex="1" parent="1">
          <mxGeometry x="370" y="150" width="110" height="30" as="geometry" />
        </mxCell>
        <mxCell id="vHFOS5RNo04X9ILBIirs-9" value="DomÃ¤ne smk.sachsen.de" style="text;html=1;strokeColor=none;fillColor=none;align=center;verticalAlign=middle;whiteSpace=wrap;rounded=0;" vertex="1" parent="1">
          <mxGeometry x="150" y="40" width="190" height="30" as="geometry" />
        </mxCell>
      </root>
    </mxGraphModel>
  </diagram>
</mxfile>
